<svg xmlns="http://www.w3.org/2000/svg" viewBox="0 0 222.53 139.88"><defs><style>.cls-1{fill:#91a4b3;}</style></defs><g id="Capa_2" data-name="Capa 2"><g id="Capa_1-2" data-name="Capa 1"><g id="Capa_2-2" data-name="Capa 2"><g id="Capa_1-2-2" data-name="Capa 1-2"><g id="Capa_2-2-2" data-name="Capa 2-2"><g id="Capa_1-2-2-2" data-name="Capa 1-2-2"><g id="Capa_2-2-2-2" data-name="Capa 2-2-2"><g id="animals"><path class="cls-1" d="M213.63,128.83a1.13,1.13,0,0,1-1.15-1.13h0V60L69.65,18.69l-67.71,58a1.15,1.15,0,0,1-1.23.17,1.11,1.11,0,0,1-.67-1v-5A1.11,1.11,0,0,1,.37,70L68.55.35A1.12,1.12,0,0,1,69.73.06l152,49.19a1.19,1.19,0,0,1,.8,1.1v76.29a1.15,1.15,0,0,1-1,1.14l-7.74,1ZM69.37,16.26a.86.86,0,0,1,.32,0L214,58a1.15,1.15,0,0,1,.83,1.1v67.26l5.45-.73V51.18L69.7,2.47,2.34,71.24v2l66.28-56.7A1.14,1.14,0,0,1,69.37,16.26Z"/><path class="cls-1" d="M69.37,18.56a1.13,1.13,0,0,1-1.15-1.13h0V1.15a1.15,1.15,0,0,1,2.3,0V17.41a1.15,1.15,0,0,1-1.13,1.15Z"/><path class="cls-1" d="M60.53,139.88a1.17,1.17,0,0,1-.49-.11L.7,112.05A1.14,1.14,0,0,1,0,111v-4.37a1.15,1.15,0,0,1,1.13-1.15,1.93,1.93,0,0,1,.34,0l59.14,19.33L96,123.37l-78.1-16.24A1.14,1.14,0,0,1,17,106V77.65a1.16,1.16,0,0,1,.64-1L105,33.5a1.19,1.19,0,0,1,.81-.08l99.69,27.1a1.18,1.18,0,0,1,.85,1.11V120a1.17,1.17,0,0,1-1.11,1.15l-99.62,4.16h-.12l-44.84,1.87a1.34,1.34,0,0,1-.4,0l-57.88-19v2.06l58.39,27.32L205,124.87a.92.92,0,0,1,.33,0l8.52,1.66a1.15,1.15,0,0,1-.44,2.26L205,127.17l-144.4,12.7Zm45.6-104a1.16,1.16,0,0,1,.44.91v86.14L204,118.85V62.48ZM19.29,105.06l85,17.66V36.8a1,1,0,0,1,.11-.5L19.29,78.37Z"/><path class="cls-1" d="M60.53,139.88a1.13,1.13,0,0,1-1.15-1.13h0V126a1.15,1.15,0,0,1,2.3,0h0v12.72A1.17,1.17,0,0,1,60.53,139.88Z"/><path class="cls-1" d="M1.19,107.78A1.14,1.14,0,0,1,0,106.66a1.15,1.15,0,0,1,1.12-1.18h0l17-.63h0a1.15,1.15,0,0,1,0,2.3l-17,.63Z"/><path class="cls-1" d="M18.15,78.8H18L1,76.92a1.15,1.15,0,0,1-1-1.27,1.17,1.17,0,0,1,1.27-1l17,1.88a1.15,1.15,0,0,1-.12,2.29Z"/><path class="cls-1" d="M205.11,62.75A1.15,1.15,0,0,1,204,61.6h0a1.17,1.17,0,0,1,.82-1.09L213.31,58a1.15,1.15,0,0,1,.81,2.15l-.16.05-8.53,2.5A.72.72,0,0,1,205.11,62.75Z"/><path class="cls-1" d="M134.52,123.67a.58.58,0,0,1-.58-.58h0V63.38l-28-2.45L32.32,82.46v26a.58.58,0,0,1-.56.58h0a.58.58,0,0,1-.58-.58h0V82a.57.57,0,0,1,.42-.55L105.68,59.8a.38.38,0,0,1,.21,0l28.68,2.5a.59.59,0,0,1,.52.57v60.24A.57.57,0,0,1,134.52,123.67Z"/><path class="cls-1" d="M113.38,123.67a.58.58,0,0,1-.58-.58h0V60.77a.58.58,0,0,1,.51-.64.59.59,0,0,1,.64.49v62.47A.59.59,0,0,1,113.38,123.67Z"/><path class="cls-1" d="M91.82,121.17a.58.58,0,0,1-.58-.58h0V64.73a.58.58,0,0,1,.58-.58h0a.59.59,0,0,1,.57.57h0v55.86a.58.58,0,0,1-.56.58Z"/><path class="cls-1" d="M65.45,116.17a.58.58,0,0,1-.58-.58h0V72.44a.58.58,0,0,1,.65-.5.59.59,0,0,1,.5.5v43.15A.59.59,0,0,1,65.45,116.17Z"/><path class="cls-1" d="M86,119.92a.58.58,0,0,1-.58-.58h0V66.6a.58.58,0,0,1,.65-.5.59.59,0,0,1,.5.5v52.74a.58.58,0,0,1-.56.58Z"/><path class="cls-1" d="M57.91,113.87a.57.57,0,0,1-.57-.57V74.53a.58.58,0,0,1,.51-.64.59.59,0,0,1,.64.49V113.3A.58.58,0,0,1,57.91,113.87Z"/><path class="cls-1" d="M48.28,112.41a.57.57,0,0,1-.57-.57v-34a.58.58,0,0,1,.65-.5.59.59,0,0,1,.5.5v34A.58.58,0,0,1,48.28,112.41Z"/><path class="cls-1" d="M38.24,110.75a.58.58,0,0,1-.58-.58h0V80.36a.58.58,0,0,1,.65-.5.59.59,0,0,1,.5.5v29.81A.59.59,0,0,1,38.24,110.75Z"/><path class="cls-1" d="M31.91,88.94a.57.57,0,0,1-.57-.5.59.59,0,0,1,.49-.65L104.67,78a.58.58,0,0,1,.3,1.12h-.14L32,88.93Z"/></g></g></g></g></g></g></g></g></svg>