<svg xmlns="http://www.w3.org/2000/svg" viewBox="0 0 203.75 125.03"><defs><style>.cls-1{fill:#91a4b3;}</style></defs><g id="Capa_2" data-name="Capa 2"><g id="Capa_1-2" data-name="Capa 1"><g id="Capa_2-2" data-name="Capa 2"><g id="Capa_1-2-2" data-name="Capa 1-2"><g id="Capa_2-2-2" data-name="Capa 2-2"><g id="Capa_1-2-2-2" data-name="Capa 1-2-2"><g id="Capa_2-2-2-2" data-name="Capa 2-2-2"><g id="animals"><path class="cls-1" d="M39.09,66.4a.94.94,0,0,1-.92-.91V16.11A.92.92,0,0,1,39,15.2L147.87,0a1,1,0,0,1,.73.21.9.9,0,0,1,.31.69V14a.91.91,0,0,1-.8.9l-89.9,11V58.36l117-8.54a.93.93,0,0,1,1,.85V60a.94.94,0,0,1-.87.91l-41.88,2.3a.93.93,0,0,1-1-.84h0a.89.89,0,0,1,.79-1h.07l41-2.26v-7.4l-117,8.53a.92.92,0,0,1-1-.82V25.12a.89.89,0,0,1,.81-.9l89.87-11V2L40,16.9V65.49a.91.91,0,0,1-.91.91Z"/><path class="cls-1" d="M119.46,123a.88.88,0,0,1-.6-.23.94.94,0,0,1-.32-.69V59.55a.92.92,0,0,1,.34-.71.85.85,0,0,1,.75-.19L180,70.74a.88.88,0,0,1,.74.89v41.8a.91.91,0,0,1-.79.91L119.54,123Zm.91-62.3V121L179,112.64V72.38Z"/><path class="cls-1" d="M202.8,71.73a1.94,1.94,0,0,1-.33-.07L175,60.81a.93.93,0,0,1-.52-1.19.92.92,0,0,1,1.18-.53h0L201.9,69.46V36.89L147.5,1.71a.92.92,0,0,1-.27-1.26.89.89,0,0,1,1.22-.31l0,0h0L203.3,35.62a.9.9,0,0,1,.42.77V70.81A.92.92,0,0,1,202.8,71.73Z"/><path class="cls-1" d="M198.07,61.69a2.21,2.21,0,0,1-.37-.08l-22.76-10a.92.92,0,0,1-.46-1.21.88.88,0,0,1,1.16-.48h0l21.48,9.47V42.87l-49.61-28a.91.91,0,0,1-.35-1.24h0a.92.92,0,0,1,1.25-.35L198.5,41.56a.89.89,0,0,1,.47.79V60.78a.92.92,0,0,1-.42.76A1.34,1.34,0,0,1,198.07,61.69Z"/><path class="cls-1" d="M175.31,44.84a.43.43,0,0,1-.22-.06l-43.64-24.1-70.6,8.79a.54.54,0,0,1-.39-.15L57,25.43a.46.46,0,0,1,0-.65.47.47,0,0,1,.65-.05l.07.09L61,28.53l70.5-8.78a.39.39,0,0,1,.28.05l43.65,24.12,22.62-2a.44.44,0,0,1,.5.37h0a.42.42,0,0,1-.35.47h0l-22.76,2Z"/><path class="cls-1" d="M175.31,51.19a.48.48,0,0,1-.46-.46h0V44.38a.46.46,0,0,1,.92,0v6.35A.48.48,0,0,1,175.31,51.19Z"/><path class="cls-1" d="M179.86,72.55a.93.93,0,0,1-.82-1,.91.91,0,0,1,.82-.82l22.94-.82a.94.94,0,0,1,.12,1.88h0L180,72.61Z"/><path class="cls-1" d="M7.39,125H.91a.94.94,0,0,1-.91-.92V70.61a.91.91,0,0,1,.83-.91L119.37,58.63a.9.9,0,0,1,1,.81v.06a.93.93,0,0,1-.79,1L1.83,71.44v51.74H6.48V83.31a.91.91,0,0,1,.85-.91l104.35-7.78a.9.9,0,0,1,1,.81v45.7h6.79a.89.89,0,0,1,.82,1v0h0a.93.93,0,0,1-.82.82h-7.71a.94.94,0,0,1-.91-.92V76.51L8.31,84.16v39.93a.93.93,0,0,1-.9.94Z"/><path class="cls-1" d="M7.39,124.55a.46.46,0,0,1-.45-.39.45.45,0,0,1,.37-.52h0l11-1.78V88.41a.46.46,0,0,1,.42-.46l92.8-6.56a.44.44,0,0,1,.49.38h0a.44.44,0,0,1-.4.47h0L19.23,88.83v33.42a.46.46,0,0,1-.38.45L7.47,124.54Z"/><path class="cls-1" d="M18.77,122.7a.48.48,0,0,1-.39-.53.45.45,0,0,1,.39-.38l93-2.25a.42.42,0,0,1,.47.36V120a.47.47,0,0,1-.45.47l-93,2.25Z"/><path class="cls-1" d="M131.54,54a.46.46,0,0,1-.46-.44V20.2a.45.45,0,0,1,.49-.4h0a.47.47,0,0,1,.39.39v33.4A.47.47,0,0,1,131.54,54Z"/><path class="cls-1" d="M107.9,55.29a.48.48,0,0,1-.46-.46V23.28a.46.46,0,0,1,.92,0V54.83A.48.48,0,0,1,107.9,55.29Z"/><path class="cls-1" d="M86,57.54a.46.46,0,0,1-.46-.45V26.15a.46.46,0,0,1,.46-.46.45.45,0,0,1,.46.44h0v31A.46.46,0,0,1,86,57.54Z"/><path class="cls-1" d="M60.8,59.18a.46.46,0,0,1-.46-.45V29a.46.46,0,0,1,.46-.46.45.45,0,0,1,.45.45h0V58.71a.45.45,0,0,1-.45.45h0Z"/><path class="cls-1" d="M57,121.6a.48.48,0,0,1-.46-.46V85.88a.46.46,0,0,1,.46-.46.45.45,0,0,1,.45.45h0v35.26A.47.47,0,0,1,57,121.6Z"/><path class="cls-1" d="M35.39,121.94a.46.46,0,0,1-.46-.44h0V87.55a.45.45,0,0,1,.49-.4h0a.47.47,0,0,1,.39.39v33.94A.45.45,0,0,1,35.39,121.94Z"/><path class="cls-1" d="M18.77,88.86h-.18L7.21,83.73a.45.45,0,0,1-.21-.6.45.45,0,0,1,.59-.24h0L19,88a.44.44,0,0,1,.24.57h0A.53.53,0,0,1,18.77,88.86Z"/></g></g></g></g></g></g></g></g></svg>