<svg xmlns="http://www.w3.org/2000/svg" viewBox="0 0 187.3 132.03"><defs><style>.cls-1{fill:#91a4b3;}</style></defs><g id="Capa_2" data-name="Capa 2"><g id="Capa_1-2" data-name="Capa 1"><g id="Capa_2-2" data-name="Capa 2"><g id="Capa_1-2-2" data-name="Capa 1-2"><g id="Capa_2-2-2" data-name="Capa 2-2"><g id="Capa_1-2-2-2" data-name="Capa 1-2-2"><g id="Capa_2-2-2-2" data-name="Capa 2-2-2"><g id="animals"><path class="cls-1" d="M137.11,53.09h-.23L47.13,29.34a.91.91,0,0,1,.46-1.76L137.2,51.25l18-1.28a.93.93,0,0,1,1,.84h0a.91.91,0,0,1-.81,1h0l-18.1,1.3Z"/><path class="cls-1" d="M47.36,84.64a.88.88,0,0,1-.6-.23.9.9,0,0,1-.31-.69V44.79a.91.91,0,1,1,1.82,0h0v37.9l82.54-10.07V55.17L47.2,39.87a.9.9,0,0,1-.74-1h0a.93.93,0,0,1,1-.8h0l84.37,15.44a.92.92,0,0,1,.75.9v19a.92.92,0,0,1-.8.91L47.47,84.63Z"/><path class="cls-1" d="M182.44,78.82h0L156,77.7a.91.91,0,0,1-.87-.91v-31l-32,3.25a.91.91,0,0,1-.19-1.82h0l33-3.36a.92.92,0,0,1,1,.82V75.91L182.48,77a.93.93,0,0,1,.82,1,.91.91,0,0,1-.82.82Z"/><path class="cls-1" d="M160,77.48a.92.92,0,0,1-.92-.92V40.45L111,46.15a.91.91,0,0,1-1.09-.68h0a1,1,0,0,1,.71-1.09h.16l49.14-5.81a.94.94,0,0,1,.72.22.93.93,0,0,1,.3.68v37.1a.92.92,0,0,1-.92.92Z"/><path class="cls-1" d="M176.38,77.24a.46.46,0,0,1-.46-.45V9.35L68.33,34.27a.43.43,0,0,1-.54-.28h0a.46.46,0,0,1,.34-.55l108.15-25a.49.49,0,0,1,.39.08.46.46,0,0,1,.17.36v68A.44.44,0,0,1,176.38,77.24Z"/><path class="cls-1" d="M75.86,37a.91.91,0,0,1-.89-.93h0a1,1,0,0,1,.69-.86l86.16-18.79a.93.93,0,0,1,.77.18.9.9,0,0,1,.34.71v14.8a.92.92,0,1,1-1.83.22h0a.6.6,0,0,1,0-.19V18.41L76.1,37Z"/><path class="cls-1" d="M158.09,123.57a.92.92,0,0,1-.91-.92v-19a.92.92,0,0,1,1.83,0v19A.92.92,0,0,1,158.09,123.57Z"/><path class="cls-1" d="M158.09,132a.49.49,0,0,1-.24,0L.67,88.18A.91.91,0,0,1,0,87.3V43.45a.92.92,0,0,1,.63-.87l46.45-15a.92.92,0,0,1,.82.13.9.9,0,0,1,.37.74V39a.87.87,0,0,1-.7.89L5.64,49.77V76.91l152.12,25.74,23.76-25.11V2.12L61.72,32.93a.92.92,0,0,1-1.11-.66.93.93,0,0,1,.66-1.12L182.2,0h.05a.92.92,0,0,1,1.05.72l4,19.91v58.6a.93.93,0,0,1-.11.44l-28.39,51.9A.86.86,0,0,1,158.09,132ZM1.83,86.61l155.81,43.47,27.92-51V20.85L183.35,10v67.9a.89.89,0,0,1-.25.62l-24.34,25.73a.91.91,0,0,1-.82.28L4.58,78.58a.91.91,0,0,1-.77-.9V49a1,1,0,0,1,.71-.89l41.93-9.9v-8.5L1.83,44.12Z"/><path class="cls-1" d="M75.15,81.27a.92.92,0,0,1-.92-.92V44a.92.92,0,0,1,1.83,0V80.35A.92.92,0,0,1,75.15,81.27Z"/><path class="cls-1" d="M101.52,78.09a.91.91,0,0,1-.92-.9h0V49a.92.92,0,0,1,1.83,0V77.18a.91.91,0,0,1-.91.91Z"/><path class="cls-1" d="M155.65,73.14H137.11a.92.92,0,0,1-.91-.92v-20a.92.92,0,0,1,1.83,0V71.31h17.62a.92.92,0,0,1,.19,1.83Z"/></g></g></g></g></g></g></g></g></svg>